<?xml version="1.0" encoding="UTF-8"?>
<svg version="1.1" xmlns="http://www.w3.org/2000/svg" width="16" height="16">
<path d="M0 0 C5.28 0 10.56 0 16 0 C16 5.28 16 10.56 16 16 C10.72 16 5.44 16 0 16 C0 10.72 0 5.44 0 0 Z " fill="#F9FBFC" transform="translate(0,0)"/>
<path d="M0 0 C0.99 0.33 1.98 0.66 3 1 C3 1.66 3 2.32 3 3 C3.99 3 4.98 3 6 3 C6 6.96 6 10.92 6 15 C4.35 15 2.7 15 1 15 C-0.35015859 10.94952424 0.37915002 8.2079832 1 4 C0.01 3.67 -0.98 3.34 -2 3 C-1.01 3 -0.02 3 1 3 C0.67 2.01 0.34 1.02 0 0 Z " fill="#FBFBFB" transform="translate(10,1)"/>
<path d="M0 0 C0.99 0.33 1.98 0.66 3 1 C3 1.66 3 2.32 3 3 C3.99 3.33 4.98 3.66 6 4 C4.68 4 3.36 4 2 4 C2.33 7.63 2.66 11.26 3 15 C2.34 15 1.68 15 1 15 C-0.35015859 10.94952424 0.37915002 8.2079832 1 4 C0.01 3.67 -0.98 3.34 -2 3 C-1.01 3 -0.02 3 1 3 C0.67 2.01 0.34 1.02 0 0 Z " fill="#D6DADD" transform="translate(10,1)"/>
<path d="M0 0 C0 1.98 0 3.96 0 6 C-0.99 6 -1.98 6 -3 6 C-3.33 4.35 -3.66 2.7 -4 1 C-1 0 -1 0 0 0 Z " fill="#F5E8E8" transform="translate(16,10)"/>
</svg>
